<svg width="400" height="400" viewBox="0 0 400 400" fill="none" xmlns="http://www.w3.org/2000/svg">
<path d="M200 400C310.457 400 400 310.457 400 200C400 89.543 310.457 0 200 0C89.543 0 0 89.543 0 200C0 310.457 89.543 400 200 400Z" fill="#A5A5A5"/>
<path d="M178.586 273.961C175.806 273.978 173.05 273.445 170.476 272.393C167.903 271.342 165.562 269.793 163.588 267.835L100.213 204.46C98.243 202.491 96.6806 200.152 95.6146 197.579C94.5487 195.005 94 192.247 94 189.461C94 183.836 96.2348 178.441 100.213 174.463C104.191 170.485 109.586 168.25 115.211 168.25C120.837 168.25 126.232 170.485 130.21 174.463L178.586 223.05L269.213 132.213C273.191 128.235 278.586 126 284.211 126C289.837 126 295.232 128.235 299.21 132.213C303.188 136.191 305.423 141.586 305.423 147.211C305.423 152.837 303.188 158.232 299.21 162.21L193.585 267.835C191.611 269.793 189.27 271.342 186.696 272.393C184.123 273.445 181.367 273.978 178.586 273.961Z" fill="white"/>
</svg>
