<svg width="400" height="400" viewBox="0 0 400 400" fill="none" xmlns="http://www.w3.org/2000/svg">
<g clip-path="url(#clip0_156_35)">
<path d="M200 0C89.5437 0 0 89.5406 0 200C0 310.459 89.5437 400 200 400C310.456 400 400 310.459 400 200C400 89.5406 310.457 0 200 0ZM162.248 295.933C162.248 282.173 173.405 271.016 187.165 271.016C200.914 271.016 212.071 282.173 212.071 295.933C212.071 309.679 200.914 320.842 187.165 320.842C173.405 320.842 162.248 309.679 162.248 295.933ZM268.457 170.978C265.648 178.629 261.58 185.266 256.977 190.787C247.721 201.841 236.752 208.536 227.725 213.476C221.695 216.737 216.371 219.248 213.062 221.108C210.792 222.361 209.563 223.412 208.955 224.097C208.355 224.82 208.152 225.117 207.787 226.305C207.573 227.093 207.351 228.345 207.351 230.282C207.351 235.648 207.351 240.057 207.351 240.057C207.351 245.113 203.251 249.22 198.192 249.22H176.12C171.062 249.22 166.955 245.113 166.955 240.057C166.955 240.057 166.955 235.647 166.955 230.282C166.955 225.252 167.542 220.326 168.834 215.613C170.112 210.919 172.127 206.458 174.699 202.57C179.855 194.693 186.841 189.444 193.437 185.789C199.219 182.606 204.939 179.965 210.246 176.976C215.55 174.013 220.28 170.796 223.763 167.31C226.098 164.986 227.912 162.584 229.3 159.873C231.124 156.257 232.39 152.008 232.419 145.506C232.428 143.582 231.873 141.052 230.363 138.159C228.858 135.279 226.405 132.148 223.125 129.338C216.523 123.676 206.841 119.537 195.739 119.556C183.016 119.602 174.5 122.584 167.937 126.291C161.405 130.022 159.32 133.787 159.32 133.787C155.986 136.691 151.037 136.795 147.582 134.032L130.621 120.441C128.497 118.743 127.245 116.192 127.187 113.467C127.137 110.749 128.3 108.147 130.359 106.359C130.359 106.359 135.645 98.2102 147.899 91.218C160.102 84.193 176.276 79.118 195.74 79.1641C211.533 79.1641 226.083 83.5094 238.137 90.618C250.195 97.7648 259.931 107.605 266.145 119.427C270.271 127.298 272.805 136.17 272.812 145.505C272.821 154.72 271.287 163.327 268.457 170.978Z" fill="#ED161F"/>
</g>
<defs>
<clipPath id="clip0_156_35">
<rect width="400" height="400" fill="white"/>
</clipPath>
</defs>
</svg>
